<?xml version="1.0" standalone="no"?>
<!DOCTYPE svg PUBLIC "-//W3C//DTD SVG 20010904//EN"
 "http://www.w3.org/TR/2001/REC-SVG-20010904/DTD/svg10.dtd">
<svg version="1.0" xmlns="http://www.w3.org/2000/svg"
 width="960.000000pt" height="1440.000000pt" viewBox="0 0 960.000000 1440.000000"
 preserveAspectRatio="xMidYMid meet">

<g transform="translate(0.000000,1440.000000) scale(0.100000,-0.100000)"
fill="#000000" stroke="none">
<path d="M0 12056 l0 -2344 82 -22 c70 -19 88 -20 116 -10 31 11 193 25 272
23 78 -2 184 -14 194 -22 6 -4 25 -7 41 -5 65 5 133 4 190 -5 33 -4 64 -6 69
-3 4 2 11 -1 15 -7 4 -6 15 -9 24 -5 9 3 14 11 10 16 -7 13 22 7 84 -16 36
-13 45 -14 69 -1 50 25 164 136 184 178 23 46 24 50 11 42 -5 -3 -11 5 -13 17
-2 13 -9 23 -17 23 -8 0 -19 15 -23 33 -5 18 -15 32 -23 32 -18 0 -20 21 -2
39 10 10 9 11 -5 6 -18 -7 -28 15 -33 74 -2 20 -4 36 -5 36 -2 0 -9 62 -15
135 -8 103 21 300 45 300 7 0 18 30 18 47 0 3 7 10 16 15 9 5 16 18 16 29 0
11 4 18 9 15 5 -3 12 6 16 21 5 20 8 24 15 13 6 -10 10 -7 16 14 5 21 9 25 16
14 7 -10 8 -8 4 5 -8 23 10 57 30 57 8 0 17 7 20 15 4 8 15 15 25 15 12 0 19
7 19 20 0 13 5 18 15 14 10 -4 15 0 15 11 0 10 5 13 12 9 7 -5 9 -2 5 8 -4 11
2 17 18 21 14 2 22 0 19 -4 -3 -5 4 -9 16 -9 12 0 19 4 15 9 -3 5 -1 12 5 16
5 3 10 -1 10 -9 0 -9 5 -16 10 -16 6 0 10 5 10 10 0 6 7 10 15 10 8 0 15 4 15
9 0 15 31 21 51 10 11 -6 32 -12 47 -14 15 -1 31 -3 36 -4 5 0 7 -4 4 -7 -4
-3 8 -19 24 -35 24 -23 32 -39 35 -76 24 -312 35 -537 43 -871 13 -544 19
-671 37 -708 7 -17 15 -51 17 -75 2 -24 7 -62 11 -84 5 -32 3 -45 -12 -64
l-19 -23 -125 26 c-68 14 -234 46 -369 72 -135 25 -301 59 -369 75 -68 16
-181 39 -250 50 -69 11 -175 31 -236 44 -96 21 -385 75 -401 75 -3 0 -3 3 0 8
2 4 -14 7 -37 6 -38 0 -93 12 -139 31 -17 7 -18 -220 -18 -4679 l0 -4686 4800
0 4800 0 0 2700 0 2700 -112 0 c-81 1 -118 5 -131 15 -18 13 -18 14 3 25 21
11 70 10 188 -6 l52 -7 0 71 c0 80 5 75 -95 86 -95 10 -221 27 -380 51 -88 13
-191 27 -230 30 -137 12 -165 17 -165 30 0 14 -31 25 -74 25 -15 0 -94 13
-175 30 -158 31 -251 46 -251 38 0 -3 16 -40 35 -82 35 -77 70 -184 63 -192
-3 -2 -18 14 -34 36 -31 44 -156 125 -239 158 -27 10 -79 25 -115 32 -36 6
-74 17 -85 22 -33 17 -65 50 -65 68 0 20 86 126 165 202 33 32 56 58 52 58 -4
0 9 22 28 50 l35 50 -48 -6 c-26 -3 -54 -7 -63 -8 -9 -2 -52 0 -97 4 -77 7
-83 9 -151 59 -39 29 -71 58 -71 63 0 6 16 -1 35 -16 86 -64 102 -74 139 -86
44 -14 170 -8 224 11 30 10 37 20 32 44 -1 6 -3 16 -4 23 -4 25 -31 31 -121
27 -49 -2 -74 -1 -55 1 95 12 174 25 183 31 15 9 -16 23 -65 29 -24 3 -58 10
-76 16 -18 5 -59 7 -91 4 -57 -6 -60 -5 -80 23 -12 16 -21 35 -21 43 0 13 139
98 160 98 5 0 10 10 10 22 0 17 5 14 29 -20 46 -62 53 -59 22 10 -15 35 -37
86 -47 113 l-20 50 -70 -2 c-68 -2 -68 -2 -34 11 l35 14 -33 7 c-18 4 -43 20
-55 36 -21 28 -24 28 -77 20 -62 -10 -84 -1 -58 25 9 10 44 19 87 24 40 4 75
11 79 15 13 14 -163 -5 -233 -25 -38 -11 -92 -20 -119 -20 -42 0 -54 5 -87 35
-42 38 -44 38 -105 26 -57 -11 -82 1 -89 42 -7 36 -2 68 39 243 14 62 33 156
41 210 19 126 38 455 27 466 -11 11 -84 -148 -111 -239 -16 -54 -28 -142 -31
-225 -1 -23 -20 -2 -38 40 -23 53 -45 77 -62 67 -17 -10 -51 -15 -45 -6 3 5 7
26 10 47 14 115 19 143 36 188 19 47 75 162 118 241 21 39 21 40 1 15 -12 -13
-40 -56 -63 -95 -28 -48 -42 -64 -45 -52 -4 21 16 68 65 149 34 57 89 98 112
83 18 -11 12 -23 -14 -29 -36 -9 -31 -23 8 -18 45 5 98 -33 111 -78 12 -46 9
-44 48 -24 40 21 48 31 48 67 0 40 24 76 76 115 24 18 44 37 44 43 0 6 -16 25
-35 43 -40 38 -44 67 -15 96 31 31 77 26 114 -13 32 -34 78 -67 94 -67 5 0 7
13 4 29 -3 21 3 37 25 60 l28 32 35 -23 c25 -17 37 -33 41 -58 6 -41 -5 -70
-27 -70 -11 0 -14 -9 -12 -32 3 -32 5 -33 50 -34 25 -1 68 -9 95 -17 26 -8 67
-18 91 -21 23 -4 63 -19 90 -35 26 -17 61 -32 77 -35 42 -8 85 -27 85 -38 0
-5 14 -14 30 -20 17 -5 35 -19 41 -29 5 -10 16 -19 23 -19 7 0 30 -16 50 -36
28 -27 36 -43 34 -63 -3 -25 -4 -26 -73 -25 -38 1 -128 5 -198 9 -100 6 -133
5 -153 -5 -20 -11 -36 -12 -81 -2 -30 6 -62 17 -70 23 -22 19 -45 80 -34 93
14 17 2 29 -48 51 -24 10 -50 30 -59 43 -8 13 -18 19 -21 14 -4 -6 -11 -5 -18
3 -8 9 -7 15 8 26 17 12 17 14 -12 26 -26 11 -32 10 -48 -6 -10 -10 -41 -31
-70 -46 -28 -16 -50 -33 -48 -39 2 -5 34 -15 71 -21 71 -12 80 -19 96 -75 9
-32 8 -37 -20 -62 -22 -21 -41 -28 -70 -28 -29 0 -42 -5 -50 -20 -6 -10 -30
-33 -55 -50 -25 -17 -45 -37 -45 -44 0 -7 19 -42 41 -77 69 -107 125 -201 159
-269 18 -36 63 -112 100 -170 37 -58 79 -125 93 -150 35 -62 87 -193 87 -222
0 -15 11 -33 31 -47 34 -26 105 -131 138 -206 13 -27 25 -77 29 -109 7 -57 8
-60 37 -63 17 -2 88 -13 159 -24 156 -24 163 -21 138 55 -19 60 -11 75 52 98
39 15 58 16 117 8 39 -6 78 -14 88 -19 9 -5 57 -13 107 -16 62 -5 107 -15 147
-33 57 -25 58 -25 115 -9 31 9 94 21 140 28 69 10 86 16 99 35 13 20 13 29 3
53 -6 16 -20 37 -31 47 -19 17 -25 50 -11 70 22 34 99 46 108 17 22 -69 53
-90 157 -108 l67 -11 0 3933 0 3933 -4800 0 -4800 0 0 -2344z m5560 863 c14
-24 9 -32 -14 -23 -17 7 -23 44 -6 44 5 0 14 -9 20 -21z m968 -131 c17 -17 15
-55 -4 -62 -30 -11 -45 -6 -54 20 -17 43 26 74 58 42z m113 -468 c29 -85 37
-125 42 -210 3 -58 2 -127 -2 -155 l-7 -50 -8 50 c-10 67 -83 424 -92 454 -6
19 -4 22 12 19 14 -2 28 -30 55 -108z m-295 -81 c44 -21 64 -55 64 -110 0 -58
-71 -89 -202 -89 -100 0 -161 29 -166 78 -4 44 10 59 94 98 111 51 146 54 210
23z m-1992 -325 c3 -8 2 -12 -4 -9 -6 3 -10 10 -10 16 0 14 7 11 14 -7z m641
-372 c-3 -3 -16 5 -28 17 l-22 23 28 -17 c15 -10 25 -20 22 -23z m-4857 -419
c7 -11 6 -23 -1 -35 -9 -13 -9 -23 0 -36 13 -22 0 -53 -16 -37 -10 11 -14 40
-12 93 1 35 14 42 29 15z m170 -38 c30 -10 29 -43 -2 -55 -18 -6 -26 -19 -31
-49 -4 -23 -11 -41 -16 -41 -6 0 -24 22 -40 49 -22 35 -36 48 -48 44 -13 -4
-13 -3 -2 5 8 6 11 17 7 28 -4 9 -2 20 4 24 13 8 97 5 128 -5z m3123 -86 c-22
-52 -42 -108 -46 -125 -6 -31 -61 -92 -102 -113 -30 -15 -70 -14 -76 3 -4 9 0
12 11 10 36 -9 94 39 126 101 17 34 39 72 49 85 9 14 17 31 17 39 0 15 52 102
58 97 1 -2 -15 -46 -37 -97z m-2911 6 c20 -24 -1 -38 -28 -19 -23 16 -21 34 2
34 8 0 19 -7 26 -15z m4530 5 c-8 -5 -26 -9 -40 -9 -23 0 -23 1 -5 9 11 5 29
9 40 9 17 1 17 -1 5 -9z m-4405 -37 c28 -3 57 -10 65 -15 13 -8 13 -9 0 -5 -8
3 -38 1 -65 -3 -54 -8 -85 1 -85 26 0 11 5 14 18 9 9 -3 40 -9 67 -12z m195
-22 c0 -16 -19 -23 -41 -16 -17 6 -19 9 -8 16 19 12 49 11 49 0z m205 -21 c3
-5 -1 -10 -9 -10 -9 0 -16 5 -16 10 0 6 4 10 9 10 6 0 13 -4 16 -10z m-292
-106 c42 -22 44 -24 27 -34 -9 -5 -25 -3 -43 6 -16 9 -35 13 -42 10 -7 -2 -21
4 -31 15 -17 18 -16 19 20 19 20 0 51 -7 69 -16z m2618 -62 c-45 -67 -71 -124
-71 -158 0 -12 -5 -26 -11 -30 -7 -4 -7 -10 -1 -16 13 -13 -11 -78 -33 -91
-13 -7 -14 -11 -5 -17 8 -5 3 -7 -12 -7 -14 0 -30 8 -37 19 -15 24 -7 36 12
19 27 -22 70 16 48 43 -20 24 -2 103 39 170 22 37 40 69 40 72 0 9 52 50 68
53 1 1 -15 -25 -37 -57z m3931 32 c4 -3 0 -21 -8 -39 -14 -35 -10 -60 13 -83
20 -20 16 -85 -6 -109 -19 -20 -107 -50 -118 -40 -3 4 -9 25 -13 49 -8 41 10
114 32 129 5 3 10 20 13 38 2 18 9 39 16 47 11 14 60 20 71 8z m-1467 -34 c16
-6 33 -26 45 -52 21 -46 26 -98 10 -98 -5 0 -7 6 -4 14 7 18 -33 46 -68 46
-23 0 -29 6 -38 41 -6 22 -14 47 -17 56 -7 17 14 15 72 -7z m-2349 -26 c-3 -8
-1 -26 4 -40 8 -20 7 -25 -2 -22 -7 3 -14 24 -16 47 -2 30 0 41 8 36 6 -4 9
-13 6 -21z m-216 -3 c0 -5 -12 -17 -27 -26 l-28 -18 24 27 c26 28 31 31 31 17z
m504 -51 c-8 -7 -24 24 -23 45 0 15 4 13 14 -10 7 -16 11 -32 9 -35z m-311
-81 c3 -10 -2 -20 -11 -24 -8 -3 -15 -4 -16 -3 -1 2 -6 13 -13 24 -10 19 -9
22 12 22 14 0 25 -8 28 -19z m2416 -66 c11 -45 22 -99 23 -120 l1 -38 6 45 c6
43 7 40 29 -70 12 -63 25 -125 28 -137 4 -13 2 -23 -3 -23 -11 0 -29 54 -39
118 -5 29 -10 39 -15 30 -5 -7 -9 -11 -9 -8 0 3 -11 63 -25 135 -35 183 -34
213 4 68z m-2681 -18 c-3 -3 -9 2 -12 12 -6 14 -5 15 5 6 7 -7 10 -15 7 -18z
m2063 -167 l70 -143 -15 -38 c-9 -22 -12 -47 -7 -58 6 -19 11 -17 49 25 42 46
65 51 76 18 3 -9 21 -46 41 -81 33 -61 35 -69 35 -161 0 -53 -3 -99 -6 -102
-3 -4 -22 1 -42 10 -28 12 -81 17 -227 20 -104 2 -193 7 -197 10 -14 14 23 45
64 54 24 5 99 17 167 25 119 16 124 17 101 32 -37 25 -127 59 -174 66 -38 6
-382 -19 -413 -30 -7 -2 -13 -1 -13 3 1 11 30 47 30 37 0 -5 8 2 17 15 10 14
17 28 16 31 -1 4 7 5 17 2 11 -3 20 -1 20 5 0 17 116 157 146 177 l27 18 -23
-34 -24 -34 28 25 c32 29 81 101 126 189 18 34 34 61 36 61 2 0 36 -64 75
-142z m-4536 102 c13 -14 31 -20 61 -20 51 0 145 -18 159 -31 5 -5 22 -9 37
-9 21 0 28 -5 28 -20 0 -21 -34 -29 -45 -10 -4 6 -21 8 -39 4 -20 -3 -47 0
-71 10 -27 12 -41 13 -50 6 -10 -8 -37 1 -99 31 -47 23 -89 45 -92 50 -3 5 17
9 44 9 36 0 54 -5 67 -20z m2434 -60 c24 0 30 -8 24 -30 -3 -12 -11 -16 -21
-13 -10 4 -13 2 -8 -5 9 -15 7 -15 -30 -2 -16 6 -41 29 -56 50 -29 42 -26 46
17 30 24 -9 26 -8 20 12 -5 17 -1 14 15 -9 12 -18 30 -33 39 -33z m229 -100
c-5 -17 -15 -33 -21 -37 -5 -3 -7 -2 -4 4 4 6 11 22 16 37 14 36 22 33 9 -4z
m-171 4 c-3 -3 -12 -4 -19 -1 -8 3 -5 6 6 6 11 1 17 -2 13 -5z m63 -24 c0 -8
-44 -40 -55 -40 -3 0 1 10 10 23 8 13 12 26 9 30 -3 3 3 3 15 0 12 -3 21 -9
21 -13z m50 -39 c0 -16 -4 -41 -10 -55 -7 -20 -6 -26 8 -29 13 -3 11 -6 -9
-15 -21 -8 -28 -21 -37 -68 -7 -31 -12 -73 -12 -92 l0 -35 25 23 c37 34 30 10
-11 -45 -49 -64 -58 -47 -45 82 9 87 23 143 60 236 14 36 31 35 31 -2z m25
-18 c-3 -16 -11 -32 -16 -37 -5 -6 -4 5 1 25 6 18 10 35 10 36 0 2 3 3 6 3 3
0 3 -12 -1 -27z m2565 -30 c0 -5 -7 -39 -15 -77 -10 -49 -12 -74 -4 -88 6 -11
8 -22 5 -25 -3 -3 -11 6 -17 21 -9 20 -9 35 -1 65 7 21 12 55 12 75 0 20 5 36
10 36 6 0 10 -3 10 -7z m-2470 -107 c0 -8 -7 -22 -16 -30 -14 -15 -14 -20 6
-61 12 -25 26 -43 30 -40 5 3 12 0 16 -7 11 -17 12 -68 2 -68 -10 0 -17 -7
-53 -49 l-20 -24 23 7 c23 8 29 -3 12 -20 -16 -16 -31 -147 -17 -156 9 -5 7
-14 -6 -35 -10 -15 -21 -36 -24 -45 -11 -36 -20 -16 -33 71 -11 77 -10 97 4
152 11 45 23 70 43 86 15 12 30 20 34 17 12 -7 3 30 -20 81 -11 25 -23 61 -27
81 -5 28 -3 33 9 29 8 -4 17 1 20 9 8 20 17 21 17 2z m283 -113 c11 -74 19
-103 29 -103 7 0 6 -5 -1 -14 -6 -7 -8 -21 -5 -30 5 -14 13 -16 33 -9 41 12
122 6 139 -11 9 -9 14 -18 11 -21 -3 -2 -43 -12 -90 -20 -46 -9 -105 -22 -131
-30 l-48 -14 0 79 c0 77 32 210 50 210 5 0 10 -17 13 -37z m2270 -164 c5 -18
-4 -48 -28 -100 l-35 -74 30 35 c28 32 30 33 30 12 0 -13 -4 -20 -10 -17 -5 3
-9 -2 -8 -12 4 -54 -3 -103 -16 -103 -7 0 -20 -7 -27 -17 -13 -15 -11 -16 14
-11 33 6 35 -8 3 -33 -13 -10 -29 -32 -36 -49 -7 -16 -16 -28 -20 -25 -8 5
-29 -89 -31 -139 l-2 -31 -6 33 c-3 18 -10 32 -15 32 -19 -3 -26 28 -22 95 l5
70 -12 -48 -12 -49 -29 31 -30 31 12 117 c15 141 65 303 94 303 8 0 9 -31 5
-102 -4 -87 -4 -94 4 -41 12 83 30 134 52 147 13 8 20 8 26 -3 13 -20 30 -5
25 22 -7 30 31 -40 39 -74z m-2684 -8 c11 -47 21 -110 21 -140 0 -31 7 -103
15 -161 19 -135 19 -170 1 -170 -7 0 -19 15 -26 33 -31 77 -42 104 -61 139
-25 49 -25 120 2 176 20 39 21 51 12 115 -7 48 -7 76 0 85 5 7 11 11 12 10 2
-2 12 -41 24 -87z m2171 -7 c0 -2 -9 0 -20 6 -11 6 -20 13 -20 16 0 2 9 0 20
-6 11 -6 20 -13 20 -16z m-850 -28 c0 -15 -24 -28 -34 -19 -13 14 -5 33 14 33
11 0 20 -6 20 -14z m705 4 c3 -5 2 -10 -4 -10 -5 0 -13 5 -16 10 -3 6 -2 10 4
10 5 0 13 -4 16 -10z m70 -41 c7 -21 -9 -206 -26 -307 -10 -53 -15 -65 -39
-77 -63 -33 -176 -53 -321 -59 -183 -7 -199 -1 -246 94 -25 51 -29 66 -18 68
19 4 19 33 0 58 -8 10 -24 38 -34 62 -11 23 -27 42 -35 42 -9 0 -16 2 -16 4 0
2 -3 12 -7 22 -4 12 -3 15 5 10 7 -4 12 -1 12 8 0 8 6 13 13 12 26 -6 47 -19
47 -30 0 -22 214 -226 238 -226 5 0 12 -5 14 -11 4 -13 83 -19 120 -8 30 8 46
22 66 57 14 26 16 66 2 57 -5 -3 -10 -2 -10 3 0 5 -10 14 -23 21 -13 7 -31 26
-41 42 l-17 29 38 16 c21 8 54 23 73 32 19 9 45 17 57 19 34 3 58 19 83 56 26
37 55 40 65 6z m-1540 -29 c-21 -24 -41 -25 -61 -6 -12 13 -12 15 4 19 9 3 30
5 46 6 28 1 29 1 11 -19z m1275 -8 c0 -11 -12 -24 -26 -31 -23 -10 -26 -10
-20 4 3 9 6 23 6 31 0 8 9 14 20 14 13 0 20 -7 20 -18z m-1385 -39 c-2 -58
-12 -83 -32 -83 -23 0 -38 21 -50 67 -11 43 -11 43 21 52 60 18 64 16 61 -36z
m1732 -165 c-8 -248 -51 -476 -112 -602 -38 -79 -37 -68 -50 -336 -7 -148 -15
-182 -54 -241 -53 -78 -99 -121 -124 -113 -21 6 -30 16 -27 29 0 3 -9 15 -22
26 -13 11 -17 18 -11 14 9 -4 11 -1 7 10 -5 12 -14 15 -33 10 -14 -4 -27 -11
-29 -16 -2 -5 -8 -9 -13 -9 -6 0 -27 -11 -47 -25 -20 -14 -46 -25 -57 -25 -17
0 -18 2 -5 10 11 8 8 9 -12 4 -18 -4 -28 -2 -28 5 0 6 -6 11 -14 11 -7 0 -16
9 -19 20 -4 16 4 27 36 47 77 48 177 139 249 226 24 29 -5 4 -64 -55 -73 -73
-117 -110 -140 -116 -79 -21 -190 46 -204 123 -4 21 1 26 36 35 38 10 90 61
90 88 0 6 -13 21 -30 34 -16 12 -30 30 -30 40 0 10 -8 22 -17 26 -49 20 -7 60
68 66 30 2 59 6 64 7 6 1 23 -4 38 -11 37 -18 62 -3 62 36 0 20 -7 32 -26 43
-23 13 -30 13 -61 -2 -38 -18 -87 -13 -188 17 -43 13 -45 14 -42 49 2 21 -5
53 -17 78 -12 23 -21 46 -21 50 0 15 59 30 92 24 24 -5 38 -2 47 8 10 13 6 17
-24 27 -31 10 -40 9 -71 -9 l-35 -21 -29 30 c-17 17 -31 35 -31 40 -1 6 -2 13
-3 18 -2 7 -19 267 -20 307 -1 15 6 21 26 23 24 3 32 -5 65 -59 21 -34 59 -91
86 -126 26 -35 54 -77 62 -92 16 -32 33 -41 79 -41 42 0 222 46 266 68 19 10
74 31 123 46 121 39 134 55 177 229 19 75 37 137 39 137 2 0 1 -73 -2 -162z
m-800 90 c-3 -8 -6 -5 -6 6 -1 11 2 17 5 13 3 -3 4 -12 1 -19z m-752 -38 c7
-12 -12 -50 -26 -50 -16 0 -22 29 -9 45 14 17 26 19 35 5z m-511 -15 c-6 -16
-24 -21 -24 -7 0 11 11 22 21 22 5 0 6 -7 3 -15z m-994 -75 c24 -46 -38 -81
-84 -47 -14 10 -15 18 -7 40 9 22 17 27 45 27 25 0 38 -6 46 -20z m1404 -5
c12 -10 29 -51 47 -121 l27 -107 -59 7 c-90 9 -94 13 -107 105 -7 51 -8 90 -2
105 13 36 54 40 94 11z m2087 -67 c-17 -23 -31 -36 -31 -30 0 19 54 96 58 83
2 -6 -10 -30 -27 -53z m-2617 -33 c3 -8 1 -15 -4 -15 -6 0 -10 7 -10 15 0 8 2
15 4 15 2 0 6 -7 10 -15z m-3111 -92 c-7 -2 -19 -2 -25 0 -7 3 -2 5 12 5 14 0
19 -2 13 -5z m4287 -62 c0 -66 -11 -82 -59 -83 -40 -1 -43 2 -26 32 8 14 24
44 37 68 32 61 48 55 48 -17z m-624 2 l62 -15 41 -83 c23 -46 41 -88 41 -94 0
-6 4 -11 8 -11 7 0 34 -55 36 -75 1 -5 16 -40 34 -77 17 -37 32 -72 32 -77 0
-6 5 -11 10 -11 6 0 10 -5 10 -11 0 -12 57 -143 91 -211 20 -41 9 -60 -20 -34
-33 30 -35 16 -2 -18 29 -30 34 -42 36 -90 3 -100 -13 -90 -56 33 -11 30 -19
66 -19 80 0 19 -24 50 -94 121 -52 52 -99 96 -104 98 -25 8 -76 -132 -92 -251
-18 -128 -11 -355 11 -342 12 8 20 -30 19 -92 -1 -32 6 -93 16 -136 13 -60 14
-81 5 -90 -9 -9 -13 -6 -17 11 -4 12 -10 22 -14 22 -4 0 -10 15 -14 33 -11 54
-38 117 -51 117 -14 0 -59 62 -74 103 -6 16 -11 48 -11 71 0 31 -6 48 -21 62
l-22 19 7 -62 c9 -77 -4 -82 -37 -15 -53 105 -71 180 -72 297 0 126 11 163 58
189 18 10 53 39 78 63 25 24 68 58 95 76 52 34 63 60 39 91 -13 18 -17 16 -70
-31 -58 -53 -101 -80 -110 -71 -8 8 15 59 38 85 30 34 16 49 -19 20 -35 -29
-87 -122 -103 -182 -33 -128 -32 -400 3 -535 13 -47 47 -130 75 -180 15 -25
34 -74 38 -93 3 -19 33 -67 33 -54 0 4 9 -1 19 -10 11 -10 27 -24 36 -31 8 -7
13 -17 10 -22 -22 -36 -179 110 -322 300 -23 30 -60 91 -84 135 -23 44 -44 82
-45 84 -10 12 -410 -143 -450 -175 -15 -12 -11 -11 21 2 22 9 76 30 120 45 71
26 77 27 55 8 -14 -11 -54 -46 -89 -77 -35 -31 -76 -62 -92 -69 -15 -6 -36
-28 -47 -49 -20 -39 -22 -38 -57 11 -14 20 -14 20 -12 -2 1 -13 5 -23 9 -23
13 0 20 -84 9 -110 -11 -24 -11 -23 -8 8 3 25 -1 36 -16 43 -13 8 -16 14 -9
21 12 12 4 40 -9 32 -5 -3 -16 10 -25 28 -14 32 -15 32 -9 -34 6 -64 -4 -108
-24 -108 -5 0 -11 10 -15 22 -4 19 -8 20 -18 10 -19 -19 -13 -312 7 -400 24
-101 21 -120 -23 -202 l-40 -75 -59 3 c-129 5 -177 21 -106 35 16 3 46 12 67
20 l40 15 -4 63 c-1 35 -3 79 -4 98 -1 18 1 59 5 90 3 31 2 72 -3 91 -16 63
-17 64 -33 50 -14 -12 -72 -126 -105 -210 -10 -25 -45 -101 -79 -170 -34 -69
-61 -131 -61 -139 0 -11 -3 -11 -16 0 -13 10 -17 10 -25 -2 -19 -29 -20 -59
-6 -111 20 -71 32 -188 19 -188 -5 0 -26 7 -47 16 -20 8 -40 13 -43 10 -3 -3
-1 -6 5 -6 14 0 63 -47 63 -61 0 -8 -12 -10 -35 -6 -19 3 -35 4 -35 1 0 -3 9
-23 21 -45 11 -23 19 -42 17 -42 -2 -1 -17 -10 -35 -19 -30 -16 -32 -16 -38 1
-5 16 -53 46 -60 39 -2 -2 -20 -66 -40 -143 -58 -222 -134 -355 -204 -355 -46
0 -39 24 12 37 29 8 47 21 60 41 22 39 22 45 -3 32 -11 -6 -20 -7 -20 -3 0 4
-4 15 -9 22 -8 12 -13 11 -30 -10 -18 -20 -22 -22 -31 -9 -13 18 -4 105 15
160 17 47 92 185 108 198 7 5 21 11 32 13 11 3 22 15 25 29 4 17 13 25 27 25
11 0 29 7 39 16 11 9 29 22 41 28 14 7 20 17 16 27 -3 9 0 20 7 24 7 5 14 19
15 32 1 12 9 43 17 68 9 25 31 92 49 150 18 58 59 167 91 243 32 75 58 141 58
146 0 4 -9 16 -20 26 -18 16 -21 30 -19 84 2 79 12 103 42 99 17 -2 22 -9 20
-32 -1 -16 4 -38 11 -48 13 -19 16 -16 54 39 21 32 60 99 85 148 69 137 90
161 233 256 156 105 407 213 542 235 l42 7 -1 56 c-2 97 22 143 106 196 42 27
54 41 64 77 7 23 28 75 47 114 38 81 131 176 207 213 l46 22 -14 38 c-7 20
-22 70 -33 110 l-21 73 22 -6 c12 -4 50 -14 83 -23z m5517 -251 c20 -19 37
-42 37 -52 0 -10 8 -21 18 -23 9 -3 2 -5 -17 -6 -19 0 -53 -12 -75 -24 -52
-30 -169 -61 -199 -53 -29 7 -60 69 -52 105 8 36 24 55 62 75 26 13 34 24 39
57 4 22 14 47 22 55 13 14 21 9 72 -43 31 -32 73 -73 93 -91z m-3840 41 c9 -3
17 -14 17 -25 0 -15 -4 -18 -22 -12 -38 11 -98 44 -98 53 0 18 14 19 49 5 20
-9 44 -18 54 -21z m220 -28 c141 -28 292 -85 379 -140 71 -47 100 -85 139
-187 12 -32 26 -58 31 -58 5 0 14 -14 20 -30 8 -24 24 -37 74 -60 72 -32 114
-69 114 -100 0 -24 -118 -227 -180 -310 -96 -129 -313 -352 -534 -548 -37 -33
-65 -39 -74 -14 -2 7 2 11 8 10 7 -2 15 3 17 10 3 6 -3 12 -12 12 -10 0 -15 5
-12 14 3 7 1 18 -5 24 -8 8 -6 13 7 18 12 5 22 1 31 -11 8 -10 17 -15 21 -11
4 4 0 12 -10 17 -9 6 -17 16 -17 24 0 18 33 75 43 75 5 0 6 4 2 9 -3 5 3 16
13 23 11 7 19 15 19 18 0 3 12 24 26 47 15 24 27 46 27 49 0 4 6 12 14 18 7 6
38 58 67 116 30 58 57 107 62 108 4 2 7 10 7 18 0 7 9 29 19 48 11 19 25 53
32 75 7 23 16 41 21 41 4 0 8 9 8 20 0 12 7 35 17 53 49 95 78 296 54 370 -23
68 -103 120 -271 175 -111 37 -267 75 -278 68 -4 -2 -9 7 -10 20 -1 15 2 23 8
19 6 -4 61 -17 123 -30z m-2969 -44 c16 -18 16 -22 -8 -80 -28 -66 -31 -75
-17 -66 5 3 13 0 17 -6 4 -8 3 -9 -4 -5 -7 4 -12 2 -12 -5 0 -7 -3 -9 -7 -6
-8 9 -43 -22 -43 -38 0 -6 -16 -29 -36 -51 -25 -28 -37 -35 -41 -25 -3 7 -14
22 -24 32 -11 11 -19 23 -19 28 0 13 129 224 143 233 19 12 33 9 51 -11z
m1815 -20 c-3 -6 -10 -7 -18 -2 -7 5 -10 14 -6 21 9 14 29 -2 24 -19z m1223
-102 c111 -65 155 -110 142 -144 -5 -13 -19 -4 -63 42 -31 33 -81 73 -111 90
-30 17 -64 39 -75 48 -19 16 -19 16 10 10 17 -3 60 -24 97 -46z m-339 -15 c62
-48 68 -62 21 -44 -32 12 -71 45 -85 73 -15 28 2 20 64 -29z m-2460 -18 c46
-35 133 -212 122 -247 -4 -12 -1 -19 7 -19 8 0 9 -3 3 -8 -5 -4 -15 -16 -21
-27 -19 -35 -73 -53 -169 -56 -49 -2 -92 -7 -95 -11 -3 -4 -18 -1 -33 7 -16 8
-26 9 -24 3 1 -6 -4 -13 -11 -15 -7 -3 -11 -1 -10 4 4 12 -70 82 -77 74 -4 -3
-5 -1 -4 4 1 6 -3 28 -9 50 -10 33 -8 50 9 107 11 37 24 70 30 73 5 4 7 16 3
28 -6 22 -6 22 10 2 12 -15 14 -16 10 -3 -4 12 4 20 30 29 20 7 36 16 36 20 0
12 40 17 102 14 43 -3 66 -10 91 -29z m4605 -36 c73 -52 137 -159 149 -247 5
-40 4 -43 -23 -53 -50 -19 -65 -10 -113 74 -42 73 -50 80 -91 92 -79 23 -108
101 -54 143 38 30 83 27 132 -9z m-1952 -61 c30 -22 70 -61 89 -87 42 -58 96
-183 102 -237 9 -75 6 -176 -6 -188 -6 -6 -11 -18 -11 -26 0 -19 -32 -91 -41
-91 -4 0 -10 -11 -13 -25 -4 -14 -11 -25 -17 -25 -6 0 -7 -5 -3 -12 4 -6 0
-16 -9 -23 -10 -7 -18 -24 -19 -37 -2 -29 -38 -59 -38 -33 0 9 7 18 15 21 8 4
15 10 15 15 0 5 -11 3 -25 -3 -35 -16 -39 -6 -16 36 11 19 18 42 15 50 -3 8
-1 17 5 20 6 4 8 13 4 21 -7 21 6 107 16 100 5 -2 13 27 20 65 14 85 14 100 2
81 -6 -10 -9 -2 -8 25 3 79 -14 187 -38 233 -23 45 -99 124 -110 113 -3 -3 -5
0 -5 6 0 14 11 42 16 42 3 0 30 -18 60 -41z m3772 -79 c43 -27 39 -51 -13 -68
-58 -19 -101 -5 -98 32 4 58 50 73 111 36z m-6872 -15 c18 -27 13 -54 -16 -80
-19 -17 -21 -17 -38 -2 -10 10 -24 17 -30 17 -20 0 -13 42 10 67 28 30 53 29
74 -2z m6519 -79 c8 -14 4 -22 -19 -42 -23 -20 -37 -24 -74 -22 -82 5 -78 65
6 86 42 10 71 3 87 -22z m-7731 -71 c42 -8 81 -17 86 -20 11 -7 -6 -56 -23
-67 -11 -7 -202 -1 -244 8 -12 2 -28 14 -34 26 -10 19 -8 25 15 45 33 28 87
30 200 8z m1203 -37 c16 -20 22 -69 13 -94 -21 -55 -100 -31 -100 31 0 50 62
95 87 63z m796 -140 c-8 -59 -13 -61 -13 -5 0 26 4 47 9 47 5 0 7 -19 4 -42z
m3533 -389 c8 -13 -21 1 -51 26 -19 15 -18 15 12 1 17 -9 35 -21 39 -27z
m-2785 -23 c1 -54 6 -78 17 -85 12 -8 21 -81 13 -110 -7 -25 -7 -24 -28 12
-12 20 -23 44 -25 54 -2 10 -7 21 -12 24 -4 4 -5 17 -1 29 6 18 9 20 16 9 8
-14 9 -11 9 19 0 4 -8 8 -18 8 -9 1 -23 2 -31 3 -8 1 -5 8 10 22 l24 20 -22
-6 c-18 -5 -23 -2 -23 14 0 24 25 40 51 34 15 -4 19 -15 20 -47z m2686 22 c67
-29 103 -57 95 -76 -17 -42 -78 -132 -87 -129 -5 2 -11 28 -13 58 -2 30 -9 71
-17 92 -15 37 -19 67 -10 67 2 0 17 -5 32 -12z m142 -82 c10 -12 8 -13 -8 -9
-12 3 -21 9 -21 14 0 14 16 11 29 -5z m-3166 -197 c3 -50 8 -94 11 -97 3 -2
12 1 20 7 8 7 19 10 24 7 4 -2 14 -73 22 -156 10 -120 11 -165 1 -216 -11 -63
-8 -90 9 -79 21 13 33 -31 36 -138 2 -61 6 -137 8 -167 16 -164 17 -209 10
-283 -9 -95 -12 -87 -39 98 -9 61 -25 151 -36 200 -58 276 -89 541 -89 767 0
172 13 205 23 57z m2172 -298 c-4 -68 -10 -119 -14 -113 -3 5 -3 66 1 134 3
67 7 168 9 223 l3 100 4 -110 c2 -60 0 -166 -3 -234z m-1309 285 c3 -23 -20
-15 -24 8 -3 11 1 17 9 14 7 -2 13 -12 15 -22z m1073 -2 c-6 -7 -7 -19 -3 -25
4 -7 3 -9 -4 -5 -15 9 -11 43 5 43 9 0 10 -4 2 -13z m-1404 -74 c14 -40 23
-75 21 -77 -3 -4 -39 89 -52 137 -14 51 7 11 31 -60z m-93 11 c76 -103 191
-215 343 -331 39 -29 83 -65 99 -79 31 -28 86 -109 86 -125 -1 -6 -9 5 -20 25
-25 47 -102 122 -159 156 -123 70 -317 267 -395 401 -4 6 -5 12 -2 12 3 0 25
-26 48 -59z m1307 -151 c-2 -138 -6 -126 -12 28 -2 62 0 107 5 100 4 -7 7 -65
7 -128z m1422 128 c4 -52 -15 -123 -30 -114 -5 4 -12 -7 -16 -24 -4 -16 -11
-30 -16 -30 -12 0 -12 3 5 36 8 15 13 31 10 36 -3 5 0 15 6 23 7 8 10 22 6 30
-3 8 -1 15 4 15 6 0 10 9 10 20 0 21 19 28 21 8z m-2926 -98 c3 -5 1 -10 -4
-10 -6 0 -11 5 -11 10 0 6 2 10 4 10 3 0 8 -4 11 -10z m-285 -225 c11 -93 31
-233 45 -310 33 -191 67 -443 63 -457 -3 -7 -12 44 -22 113 -10 68 -26 165
-36 214 -10 50 -21 115 -24 145 -9 80 -15 124 -31 225 -17 108 -30 252 -22
245 3 -3 15 -82 27 -175z m-288 -5 c14 -47 31 -104 37 -127 7 -24 17 -43 24
-43 7 0 26 -12 42 -26 17 -14 22 -23 13 -20 -28 8 -41 -65 -14 -81 13 -8 32
-53 23 -53 -9 0 -54 85 -66 125 -7 22 -30 76 -51 120 -34 71 -39 91 -44 175
-3 58 -2 79 3 55 4 -22 19 -78 33 -125z m595 94 c-3 -3 -12 -4 -19 -1 -8 3 -5
6 6 6 11 1 17 -2 13 -5z m913 -313 c0 -20 -5 -29 -15 -27 -23 3 -29 15 -11 22
9 3 16 12 16 20 0 8 2 14 5 14 3 0 5 -13 5 -29z m33 6 c3 -8 1 -20 -4 -28 -6
-10 -9 -7 -9 14 0 29 5 35 13 14z m992 -188 c25 -96 61 -221 80 -279 40 -123
95 -328 94 -350 0 -8 -17 35 -38 95 -22 61 -43 120 -48 133 l-9 23 -24 -26
-24 -25 -12 42 c-7 24 -24 81 -37 128 -29 98 -53 272 -41 292 5 7 7 45 5 83
-1 39 0 67 3 64 3 -3 26 -84 51 -180z m-3532 64 c4 -20 5 -39 2 -41 -7 -7 -36
58 -30 68 12 19 22 9 28 -27z m1142 -117 c-4 -31 -12 -56 -17 -56 -6 0 -7 7
-4 16 3 9 6 39 6 67 0 37 3 48 11 40 7 -7 8 -31 4 -67z m4072 -106 c30 -106
68 -183 115 -230 21 -21 34 -41 29 -44 -7 -5 -81 32 -119 60 -2 1 -14 44 -27
96 -23 94 -37 198 -26 198 3 0 16 -36 28 -80z m-1357 21 c-30 -10 -71 -26 -90
-35 l-35 -18 26 27 c27 27 70 43 124 43 23 1 18 -3 -25 -17z m1040 5 c0 -3 -4
-8 -10 -11 -5 -3 -10 -1 -10 4 0 6 5 11 10 11 6 0 10 -2 10 -4z m-1020 -20 c0
-7 -64 -43 -90 -51 -23 -6 -24 -6 -10 9 8 8 33 22 55 30 49 18 45 17 45 12z
m10 -131 c0 -8 -4 -15 -10 -15 -5 0 -7 7 -4 15 4 8 8 15 10 15 2 0 4 -7 4 -15z
m-1405 -25 c-176 -17 -310 -22 -300 -12 11 12 97 18 270 19 l110 0 -80 -7z
m2675 -75 c0 -5 -5 -3 -10 5 -5 8 -10 20 -10 25 0 6 5 3 10 -5 5 -8 10 -19 10
-25z m-5534 -34 c-18 -33 -114 -141 -127 -141 -4 0 2 10 14 23 12 12 43 51 69
85 52 67 67 79 44 33z m3280 -48 c-3 -21 -6 -57 -6 -81 0 -40 -2 -42 -24 -36
-29 7 -32 3 -40 -68 -7 -56 -7 -58 19 -68 l26 -10 -47 -90 c-42 -83 -48 -90
-76 -90 -27 0 -30 3 -24 23 3 12 18 74 31 137 14 63 32 136 40 161 9 25 18 63
20 85 9 68 13 74 52 74 36 0 36 0 29 -37z m654 -25 c0 -18 -2 -20 -9 -8 -6 8
-7 18 -5 22 9 14 14 9 14 -14z m-1102 -5 c-10 -2 -26 -2 -35 0 -10 3 -2 5 17
5 19 0 27 -2 18 -5z m1119 -75 c-3 -8 -6 -5 -6 6 -1 11 2 17 5 13 3 -3 4 -12
1 -19z m-1128 -222 l1 -124 -63 -40 c-47 -30 -65 -37 -74 -29 -9 9 -56 248
-50 253 2 1 180 63 183 64 1 0 2 -56 3 -124z m-2966 74 c4 -16 4 -35 2 -42 -6
-16 -53 -39 -59 -29 -6 9 34 101 44 101 4 0 10 -13 13 -30z m4646 -77 c5 -10
21 -62 36 -115 24 -89 25 -104 16 -170 -6 -40 -15 -88 -20 -107 -14 -46 1 -79
83 -179 36 -46 66 -84 66 -87 0 -6 -115 -84 -134 -91 -12 -5 -12 2 2 46 15 48
15 56 -1 118 -21 81 -49 118 -40 54 8 -56 -15 -145 -34 -138 -8 4 -26 8 -39
11 -13 3 -35 7 -49 10 -37 8 -31 33 21 104 2 2 11 -4 20 -13 9 -9 21 -15 28
-13 21 7 17 33 -13 77 -29 43 -43 98 -21 85 6 -4 18 -4 26 -1 13 5 13 9 -2 35
-10 16 -14 36 -10 46 6 17 8 16 29 -4 13 -11 26 -21 29 -21 7 0 0 225 -8 260
-6 25 -6 25 -21 5 -13 -19 -14 -17 -8 20 11 71 15 85 25 85 5 0 14 -8 19 -17z
m-4644 -112 c-17 -34 -35 -48 -35 -29 0 18 28 58 41 58 5 0 3 -13 -6 -29z
m6092 -303 c11 -13 36 -52 56 -88 21 -38 77 -108 137 -169 55 -58 100 -109
100 -113 0 -5 -25 -5 -55 -2 -59 7 -65 2 -44 -38 6 -11 8 -22 6 -24 -3 -3 -24
29 -46 70 -23 41 -66 107 -96 146 -30 39 -55 73 -55 75 0 3 14 -1 30 -10 41
-21 39 -3 -7 54 -55 69 -59 72 -98 55 -19 -8 -37 -14 -39 -14 -7 0 78 79 85
80 3 0 15 -10 26 -22z m-2813 -9 c-10 -17 -71 -40 -88 -33 -25 10 -18 24 12
25 15 0 36 4 47 9 28 12 37 12 29 -1z m-3306 -41 c2 -24 -7 -57 -28 -100 -35
-72 -100 -167 -115 -168 -24 0 -115 -113 -102 -126 2 -2 37 18 78 46 40 27 84
50 96 50 l23 0 -22 -33 c-24 -38 -103 -92 -190 -132 -56 -25 -58 -28 -58 -63
1 -20 7 -54 14 -74 7 -21 10 -42 5 -50 -5 -7 -7 -55 -5 -106 4 -90 -8 -151
-32 -166 -18 -11 -59 35 -78 87 -3 9 -10 17 -15 17 -5 0 -9 4 -9 9 0 5 -17 35
-39 67 -89 136 -141 271 -141 368 0 28 -4 36 -17 36 -16 0 -18 -11 -15 -127 5
-161 -2 -209 -32 -228 -13 -9 -66 -24 -117 -35 -52 -10 -112 -23 -134 -29 -22
-6 -78 -13 -125 -17 -47 -3 -101 -10 -120 -15 -39 -9 -68 -13 -176 -24 -66 -6
-73 -5 -93 16 -11 13 -21 28 -22 33 0 6 -4 1 -9 -11 -13 -32 -35 -28 -64 10
-22 28 -24 38 -16 65 12 44 14 47 24 44 5 -2 6 8 4 21 -4 22 -1 24 29 22 19
-1 32 3 31 9 -1 6 10 24 25 40 29 31 24 30 235 34 61 2 83 5 80 14 -3 7 3 21
13 32 10 10 21 33 25 50 4 17 17 45 30 62 13 17 22 33 19 36 -3 3 8 8 26 12
19 4 33 13 36 26 5 18 15 24 36 21 4 -1 32 14 61 33 52 33 95 41 125 22 11 -7
12 -6 6 5 -7 11 -6 12 7 2 8 -7 18 -10 21 -6 4 3 7 1 7 -5 0 -7 9 -12 21 -12
13 0 18 -4 13 -11 -5 -9 2 -10 22 -6 90 20 196 29 331 31 l153 1 31 55 c17 30
51 90 76 133 24 43 50 76 56 74 7 -2 13 -20 15 -39z m5682 17 c-7 -9 -15 -13
-19 -10 -3 3 1 10 9 15 21 14 24 12 10 -5z m-3037 -11 c-3 -9 0 -20 8 -25 12
-7 11 -9 -2 -9 -23 0 -30 10 -18 31 12 23 21 25 12 3z m-1225 -82 c4 -43 -12
-62 -53 -62 -48 0 -64 8 -81 42 -25 49 -14 59 63 56 l68 -3 3 -33z m1461 18
c55 -28 158 -41 264 -35 l92 5 -50 -15 c-64 -19 -225 -19 -329 0 -94 17 -109
27 -70 49 38 20 48 20 93 -4z m2925 -116 l47 -47 34 33 c46 44 58 30 14 -16
-30 -31 -32 -36 -17 -45 9 -5 26 -25 38 -44 12 -19 26 -33 31 -29 5 3 9 -2 9
-10 0 -9 5 -16 11 -16 5 0 8 3 5 8 -2 4 2 16 10 27 14 18 15 18 47 -16 17 -20
42 -41 53 -47 40 -21 37 -50 -9 -80 -42 -27 -79 -64 -71 -71 2 -2 28 15 59 39
31 24 58 41 61 38 2 -3 -18 -23 -46 -44 -28 -21 -57 -49 -66 -61 -13 -21 -12
-25 8 -45 l22 -22 6 24 c3 13 11 25 18 28 9 3 11 -3 6 -22 -4 -19 -1 -33 11
-46 9 -10 14 -23 11 -28 -3 -6 -3 -24 0 -40 5 -22 10 -29 22 -25 11 5 8 -6
-11 -38 -32 -54 -47 -60 -47 -20 0 16 -4 32 -9 35 -4 3 -11 19 -14 36 -4 18
-13 30 -22 30 -9 0 -13 5 -10 10 3 6 1 10 -5 10 -7 0 -4 7 5 16 21 21 15 36
-18 45 -26 7 -36 -5 -60 -71 -3 -8 -6 10 -6 40 -1 71 -42 155 -92 190 -20 14
-58 40 -84 59 l-48 34 7 -29 c3 -16 9 -45 12 -64 l5 -35 -15 25 c-8 14 -15 32
-16 40 -1 41 -22 88 -44 98 -13 6 -27 8 -30 5 -16 -16 6 -125 39 -198 34 -75
54 -125 49 -125 -2 0 3 -11 12 -25 9 -14 15 -28 12 -30 -2 -2 -19 21 -38 52
l-34 55 -22 -28 -23 -28 9 37 c9 41 3 75 -29 159 -20 50 -25 81 -30 157 -1 19
-4 21 -15 12 -16 -14 -46 -4 -46 15 0 8 -6 14 -14 14 -8 0 -16 5 -18 11 -2 7
-31 15 -63 20 -52 7 -63 6 -79 -10 -16 -16 -17 -24 -7 -52 6 -19 20 -45 31
-59 11 -14 39 -54 62 -90 23 -36 55 -84 70 -108 40 -61 60 -102 50 -102 -14 0
-44 39 -122 155 -94 142 -107 158 -115 145 -14 -22 -25 -8 -25 33 0 31 6 49
25 70 l26 27 -38 1 c-23 1 -11 5 32 9 40 4 94 3 125 -3 30 -5 67 -10 82 -10
15 0 25 -4 22 -8 -2 -4 13 -13 36 -19 32 -9 45 -8 70 5 31 16 32 37 2 34 -29
-3 -31 0 -21 31 13 35 27 37 62 10 14 -11 30 -20 35 -20 12 0 24 29 16 41 -15
24 18 4 60 -37z m-4363 -34 c28 -38 16 -68 -29 -72 l-35 -3 -24 -110 c-27
-122 -49 -170 -79 -170 -15 0 -21 12 -32 65 -16 79 -14 86 42 180 25 41 46 83
46 92 0 20 47 49 74 45 10 -1 27 -13 37 -27z m-1493 -12 c-3 -7 -13 -15 -23
-16 -15 -4 -16 -2 -4 12 17 19 32 21 27 4z m5087 -38 c11 -13 66 -44 123 -71
102 -48 159 -90 147 -109 -3 -6 0 -10 8 -10 16 0 78 -128 101 -209 9 -30 16
-55 16 -56 0 -3 -247 -24 -345 -30 -49 -3 -110 -8 -135 -11 -25 -3 -41 -2 -37
2 9 9 218 31 372 40 61 3 115 10 120 16 7 7 -7 8 -45 4 -30 -3 -100 -8 -155
-11 -55 -3 -144 -10 -199 -16 -54 -5 -101 -8 -104 -5 -3 3 2 6 10 6 9 0 18 6
21 13 5 13 73 27 202 42 72 8 117 17 112 22 -3 2 -74 -6 -158 -17 -85 -11
-162 -22 -171 -23 -9 -1 -18 3 -20 8 -2 6 8 10 22 11 44 1 201 26 196 31 -2 3
-44 0 -93 -6 -48 -6 -104 -11 -123 -11 -56 0 -14 20 45 21 28 0 88 7 135 15
l85 13 -75 -5 c-41 -2 -105 -8 -143 -12 -37 -5 -73 -5 -80 0 -8 5 -7 8 6 8 9
0 17 5 17 11 0 6 -9 8 -21 4 -15 -5 -19 -4 -15 4 4 6 2 11 -4 11 -6 0 -8 5 -5
10 3 6 1 10 -5 10 -7 0 -10 6 -7 14 3 8 -1 17 -9 20 -9 3 -12 10 -9 16 3 5 1
10 -6 10 -7 0 -10 3 -6 6 8 8 -77 94 -92 94 -7 0 -9 5 -6 10 3 6 -2 13 -12 17
-10 4 -20 9 -23 12 -14 17 -77 44 -118 52 -43 8 -42 8 18 4 53 -4 305 -7 373
-5 11 0 17 8 17 25 0 14 5 34 12 44 13 22 31 17 63 -19z m-5045 -9 c0 -5 -7
-14 -15 -21 -12 -10 -15 -10 -15 2 0 8 3 18 7 21 9 10 23 9 23 -2z m3940 -65
c280 -33 342 -39 440 -40 99 -1 130 -15 196 -82 47 -49 101 -149 110 -205 5
-31 3 -36 -20 -47 -15 -7 -35 -12 -44 -12 -14 0 -15 -2 -2 -10 11 -7 9 -11
-13 -19 -15 -6 -38 -21 -50 -34 -12 -12 -31 -29 -41 -37 -18 -13 -19 -13 -12
0 4 8 -10 -4 -32 -27 -22 -23 -43 -39 -46 -35 -4 3 -5 0 -2 -8 4 -9 -7 -29
-24 -47 -17 -18 -27 -33 -23 -33 4 -1 -7 -8 -26 -16 -19 -8 -41 -12 -48 -10
-7 3 -25 1 -39 -5 -20 -7 -32 -6 -48 4 -11 7 -32 12 -46 11 -22 -2 -25 1 -25
32 0 19 2 34 6 34 3 0 5 16 5 36 0 30 -7 42 -38 67 -35 28 -37 31 -24 56 16
31 35 90 42 129 3 15 17 39 31 54 14 14 22 31 19 37 -4 6 -1 11 6 11 15 0 -37
51 -71 69 -12 7 -29 10 -37 7 -9 -3 -12 -2 -9 5 4 6 1 9 -6 8 -8 -2 -67 1
-131 5 -123 8 -130 11 -178 72 -9 10 -27 27 -40 36 -23 16 -23 17 -5 17 11 1
112 -10 225 -23z m-250 9 c0 -2 -10 -9 -22 -15 -22 -11 -22 -10 -4 4 21 17 26
19 26 11z m1615 -45 c3 -5 1 -10 -4 -10 -6 0 -11 5 -11 10 0 6 2 10 4 10 3 0
8 -4 11 -10z m1102 -60 c-1 -11 -5 -20 -9 -20 -4 0 -8 -7 -8 -16 0 -8 -5 -12
-10 -9 -8 5 -7 11 1 21 6 8 8 14 4 14 -4 0 -2 7 5 15 16 20 19 19 17 -5z
m-6098 -187 c-27 -57 -34 -93 -17 -93 7 0 -19 -34 -59 -75 -39 -41 -75 -75
-78 -75 -4 0 10 24 31 53 21 28 46 63 56 77 10 14 21 49 25 77 l6 52 -34 -10
c-19 -6 -48 -14 -64 -18 -37 -10 -70 -27 -112 -58 -22 -17 -39 -23 -54 -18
-14 5 -39 -2 -75 -20 -104 -53 -60 -1 51 60 28 15 61 35 75 45 15 10 64 22
125 30 55 6 107 13 115 14 26 4 28 -3 9 -41z m1924 26 c34 -11 114 -45 177
-75 95 -46 123 -55 160 -52 41 2 45 0 48 -21 l4 -24 -84 6 c-115 9 -130 13
-155 42 -19 21 -26 24 -41 14 -35 -22 -139 30 -196 99 l-28 32 26 0 c15 0 55
-9 89 -21z m-174 -24 c-52 -42 -117 -75 -156 -80 -134 -17 -263 -81 -263 -130
0 -8 -4 -23 -9 -33 -4 -9 -15 -33 -23 -52 -24 -55 -59 -127 -54 -108 3 12 1
15 -9 11 -8 -3 -12 -10 -9 -15 4 -6 -4 -5 -16 2 -15 8 -20 8 -16 1 5 -7 -5
-11 -29 -11 -22 0 -34 4 -30 10 9 15 -13 12 -40 -6 -14 -9 -25 -13 -25 -9 0 5
-8 1 -17 -7 -15 -13 -51 -17 -73 -8 -3 1 -8 2 -11 2 -3 -1 -4 11 -1 25 9 47
83 108 204 168 62 31 133 72 157 90 28 23 85 48 168 75 69 23 157 56 196 75
93 43 110 43 56 0z m1310 -51 c-17 -20 -63 -44 -86 -44 -10 1 0 7 21 15 21 7
46 21 55 29 20 21 27 21 10 0z m-149 2 c0 -2 -7 -7 -16 -10 -8 -3 -12 -2 -9 4
6 10 25 14 25 6z m2360 -31 c0 -2 -10 -10 -22 -16 -21 -11 -22 -11 -9 4 13 16
31 23 31 12z m-2375 -15 c16 -7 13 -9 -17 -9 -32 -1 -38 -4 -39 -23 l0 -23
-10 23 c-5 13 -7 28 -3 33 6 11 42 11 69 -1z m1722 4 c-3 -3 -12 -4 -19 -1 -8
3 -5 6 6 6 11 1 17 -2 13 -5z m845 -66 c12 -35 22 -67 20 -71 -1 -5 23 5 54
22 32 17 59 29 62 27 2 -3 -21 -21 -53 -41 -31 -20 -58 -35 -60 -33 -3 3 -55
149 -55 155 0 16 13 -8 32 -59z m-333 33 c19 -12 5 -31 -22 -30 -21 1 -20 2 3
10 17 6 5 7 -40 4 -227 -18 -252 -14 -70 9 58 7 107 14 110 15 3 0 11 -3 19
-8z m-285 -19 c3 -5 -21 -9 -52 -9 l-57 0 50 7 c28 4 51 8 52 8 1 1 4 -2 7 -6z
m-179 -22 c-3 -5 -18 -10 -33 -9 -24 0 -25 1 -7 9 28 12 47 12 40 0z m405 1
c-11 -7 -130 -18 -240 -23 -21 -1 -53 3 -49 6 2 2 58 7 124 11 66 4 122 9 124
11 2 2 16 4 30 4 20 -1 22 -3 11 -9z m-3555 -58 c60 -75 95 -144 88 -172 -6
-24 -14 -26 -32 -8 -24 22 -7 -103 21 -159 14 -27 35 -79 47 -116 12 -37 32
-80 44 -96 12 -17 38 -51 57 -76 36 -49 138 -125 228 -170 28 -14 52 -29 52
-32 0 -3 -3 -3 -7 -1 -58 30 -211 99 -230 103 -22 4 -98 62 -139 106 -54 56
-114 143 -114 164 0 9 -9 35 -19 58 -35 75 -111 272 -111 289 0 10 5 17 10 17
6 0 9 22 8 54 -2 42 2 59 16 75 11 12 23 21 27 21 5 0 29 -26 54 -57z m3628
50 c-7 -2 -21 -2 -30 0 -10 3 -4 5 12 5 17 0 24 -2 18 -5z m-5383 -23 c0 -5
-2 -10 -4 -10 -3 0 -8 5 -11 10 -3 6 -1 10 4 10 6 0 11 -4 11 -10z m4939 6
c-2 -2 -22 -6 -44 -10 -29 -5 -36 -4 -25 3 13 10 79 16 69 7z m304 -13 c-13
-2 -35 -2 -50 0 -16 2 -5 4 22 4 28 0 40 -2 28 -4z m60 0 c-7 -2 -19 -2 -25 0
-7 3 -2 5 12 5 14 0 19 -2 13 -5z m80 0 c-7 -2 -19 -2 -25 0 -7 3 -2 5 12 5
14 0 19 -2 13 -5z m-4884 -51 c0 -15 -4 -36 -9 -47 -6 -15 -9 -8 -9 28 -1 43
-12 60 -25 38 -3 -5 -15 -11 -26 -14 -19 -5 -19 -4 -2 18 14 19 21 21 44 13
21 -8 28 -16 27 -36z m4619 41 c-10 -2 -26 -2 -35 0 -10 3 -2 5 17 5 19 0 27
-2 18 -5z m-191 -9 c-3 -3 -12 -4 -19 -1 -8 3 -5 6 6 6 11 1 17 -2 13 -5z
m1093 -4 c0 -5 -5 -10 -11 -10 -5 0 -7 5 -4 10 3 6 8 10 11 10 2 0 4 -4 4 -10z
m-777 -7 c-7 -2 -19 -2 -25 0 -7 3 -2 5 12 5 14 0 19 -2 13 -5z m-330 -20 c-7
-2 -19 -2 -25 0 -7 3 -2 5 12 5 14 0 19 -2 13 -5z m-4803 -32 l53 -29 -47 5
c-36 4 -51 2 -66 -12 -11 -10 -20 -14 -20 -8 0 11 21 73 24 73 2 0 27 -13 56
-29z m3180 0 c-14 -27 -13 -74 3 -91 10 -12 9 -12 -5 -1 -26 20 -31 47 -13 81
8 16 18 30 21 30 2 0 0 -9 -6 -19z m-2940 4 c0 -8 -62 -37 -67 -31 -3 3 10 12
28 20 42 18 39 17 39 11z m740 -4 c0 -14 -26 -20 -41 -9 -11 8 -11 9 3 4 10
-3 20 -1 23 4 8 12 15 13 15 1z m40 5 c0 -3 -4 -8 -10 -11 -5 -3 -10 -1 -10 4
0 6 5 11 10 11 6 0 10 -2 10 -4z m-1872 -37 c14 -73 -223 -164 -396 -151 l-53
4 3 36 c3 30 8 37 35 46 18 6 32 14 32 19 -2 32 67 47 215 47 55 0 108 5 116
10 20 14 44 8 48 -11z m1768 14 c-4 -5 -13 -8 -19 -8 -7 -1 -11 -6 -10 -13 2
-6 -4 -9 -12 -6 -20 8 -19 22 3 27 29 8 46 7 38 0z m-549 -45 c-3 -8 -6 -5 -6
6 -1 11 2 17 5 13 3 -3 4 -12 1 -19z m-792 -85 c14 -15 25 -33 25 -39 0 -7 18
-42 41 -79 29 -48 39 -75 37 -98 l-3 -32 -145 0 c-181 1 -350 35 -350 71 0 20
26 30 147 58 117 27 156 39 152 46 -5 8 57 100 67 100 2 0 15 -12 29 -27z
m1811 -1 c27 13 29 12 38 -19 6 -17 -2 -31 -31 -63 -21 -22 -41 -40 -45 -40
-4 0 -7 29 -6 65 2 39 6 61 11 56 6 -6 19 -5 33 1z m1096 -190 c-16 -31 -48
-72 -73 -91 l-44 -36 48 55 c58 67 86 123 89 176 l1 39 4 -44 c3 -34 -2 -57
-25 -99z m1018 89 c0 -11 -12 -33 -26 -48 l-26 -28 21 29 c12 16 21 37 21 47
0 11 2 19 5 19 3 0 5 -9 5 -19z m-509 -86 c6 -11 -1 -6 -15 10 -14 17 -26 35
-26 40 1 11 27 -20 41 -50z m2504 -205 c3 -5 2 -10 -4 -10 -5 0 -13 5 -16 10
-3 6 -2 10 4 10 5 0 13 -4 16 -10z m-108 -355 c28 -8 57 -22 64 -32 15 -17 25
-18 -123 3 -28 3 -48 11 -48 18 0 30 31 33 107 11z m1327 -293 c3 -5 -10 -14
-29 -19 -40 -13 -59 2 -23 16 30 12 46 13 52 3z m-4439 -893 c-56 -11 -105
-11 -105 1 0 6 30 10 73 9 65 -1 68 -2 32 -10z m-115 -74 c-7 -9 -27 -14 -49
-13 l-36 1 39 4 c29 3 40 10 44 26 3 12 7 16 10 9 2 -7 -2 -19 -8 -27z"/>
<path d="M2815 8050 c-3 -5 -1 -10 4 -10 6 0 11 5 11 10 0 6 -2 10 -4 10 -3 0
-8 -4 -11 -10z"/>
<path d="M2212 6978 c-16 -16 -15 -28 3 -28 8 0 15 9 15 20 0 23 -2 24 -18 8z"/>
<path d="M2012 6677 c-28 -31 -86 -163 -79 -182 4 -9 19 -15 36 -15 28 0 32 4
46 54 21 72 34 155 25 161 -4 2 -16 -6 -28 -18z"/>
<path d="M8133 5294 c17 -32 51 -66 85 -83 39 -21 24 3 -39 58 -51 46 -59 49
-46 25z"/>
<path d="M821 4994 c0 -11 3 -14 6 -6 3 7 2 16 -1 19 -3 4 -6 -2 -5 -13z"/>
<path d="M7652 5265 c-17 -14 -47 -32 -67 -40 -42 -18 -40 -26 19 -54 33 -17
49 -19 69 -12 37 14 41 28 17 61 -17 23 -19 34 -10 50 14 26 8 25 -28 -5z"/>
<path d="M7686 5145 c-16 -12 -16 -16 -5 -27 20 -19 76 -58 84 -58 10 0 -5 42
-27 73 -22 31 -26 32 -52 12z"/>
<path d="M7931 5040 c-10 -6 -11 -40 -1 -40 4 0 17 11 30 24 l22 25 -21 -2
c-12 -1 -25 -4 -30 -7z"/>
<path d="M6858 5013 c7 -3 16 -2 19 1 4 3 -2 6 -13 5 -11 0 -14 -3 -6 -6z"/>
<path d="M7138 5013 c7 -3 16 -2 19 1 4 3 -2 6 -13 5 -11 0 -14 -3 -6 -6z"/>
<path d="M6868 4993 c7 -3 16 -2 19 1 4 3 -2 6 -13 5 -11 0 -14 -3 -6 -6z"/>
<path d="M7148 4993 c7 -3 16 -2 19 1 4 3 -2 6 -13 5 -11 0 -14 -3 -6 -6z"/>
<path d="M6873 4973 c9 -2 23 -2 30 0 6 3 -1 5 -18 5 -16 0 -22 -2 -12 -5z"/>
<path d="M7183 4973 c9 -2 23 -2 30 0 6 3 -1 5 -18 5 -16 0 -22 -2 -12 -5z"/>
<path d="M6818 4963 c6 -2 18 -2 25 0 6 3 1 5 -13 5 -14 0 -19 -2 -12 -5z"/>
<path d="M6823 4943 c9 -2 23 -2 30 0 6 3 -1 5 -18 5 -16 0 -22 -2 -12 -5z"/>
<path d="M6968 4943 c6 -2 18 -2 25 0 6 3 1 5 -13 5 -14 0 -19 -2 -12 -5z"/>
<path d="M6768 4933 c6 -2 18 -2 25 0 6 3 1 5 -13 5 -14 0 -19 -2 -12 -5z"/>
<path d="M6908 4933 c7 -3 16 -2 19 1 4 3 -2 6 -13 5 -11 0 -14 -3 -6 -6z"/>
<path d="M7238 4933 c7 -3 16 -2 19 1 4 3 -2 6 -13 5 -11 0 -14 -3 -6 -6z"/>
<path d="M6828 4923 c6 -2 18 -2 25 0 6 3 1 5 -13 5 -14 0 -19 -2 -12 -5z"/>
<path d="M6850 4900 c0 -5 7 -7 15 -4 8 4 15 8 15 10 0 2 -7 4 -15 4 -8 0 -15
-4 -15 -10z"/>
<path d="M6898 4903 c7 -3 16 -2 19 1 4 3 -2 6 -13 5 -11 0 -14 -3 -6 -6z"/>
<path d="M6798 4893 c6 -2 18 -2 25 0 6 3 1 5 -13 5 -14 0 -19 -2 -12 -5z"/>
<path d="M6985 4890 c-16 -7 -17 -9 -3 -9 9 -1 20 4 23 9 7 11 7 11 -20 0z"/>
<path d="M6920 4880 c-18 -12 -2 -12 25 0 13 6 15 9 5 9 -8 0 -22 -4 -30 -9z"/>
<path d="M6833 4873 c15 -2 37 -2 50 0 12 2 0 4 -28 4 -27 0 -38 -2 -22 -4z"/>
<path d="M7098 4873 c6 -2 18 -2 25 0 6 3 1 5 -13 5 -14 0 -19 -2 -12 -5z"/>
<path d="M7220 4870 l-45 -7 42 -1 c23 -1 45 3 48 8 3 6 5 9 3 8 -2 0 -23 -4
-48 -8z"/>
<path d="M7068 4843 c12 -2 32 -2 45 0 12 2 2 4 -23 4 -25 0 -35 -2 -22 -4z"/>
<path d="M7188 4833 c7 -3 16 -2 19 1 4 3 -2 6 -13 5 -11 0 -14 -3 -6 -6z"/>
<path d="M7258 4833 c6 -2 18 -2 25 0 6 3 1 5 -13 5 -14 0 -19 -2 -12 -5z"/>
<path d="M7198 4813 c6 -2 18 -2 25 0 6 3 1 5 -13 5 -14 0 -19 -2 -12 -5z"/>
<path d="M7226 4800 c-16 -5 -33 -7 -37 -4 -4 2 -11 -1 -15 -7 -7 -12 71 -5
124 11 26 8 25 8 -8 8 -19 0 -48 -4 -64 -8z"/>
<path d="M6980 4784 c-125 -15 -155 -22 -100 -23 46 -1 260 26 268 33 8 9 -37
6 -168 -10z"/>
<path d="M943 4473 c9 -2 25 -2 35 0 9 3 1 5 -18 5 -19 0 -27 -2 -17 -5z"/>
<path d="M1420 9753 c-8 -4 -31 -24 -52 -47 -28 -29 -35 -43 -27 -51 8 -7 13
-6 16 2 2 7 11 9 18 6 9 -3 19 5 26 21 7 14 18 26 26 26 7 0 13 9 13 21 0 13
4 18 12 13 7 -4 8 -3 4 4 -8 13 -13 14 -36 5z"/>
<path d="M210 9670 c-12 -8 -10 -10 8 -10 13 0 20 4 17 10 -7 12 -6 12 -25 0z"/>
<path d="M7347 7444 c-4 -4 -7 -13 -7 -20 0 -10 7 -9 28 3 33 19 65 11 60 -14
-2 -13 -14 -19 -41 -21 -20 -2 -37 -5 -37 -7 0 -21 103 -285 111 -285 4 0 14
12 24 26 12 19 14 29 6 34 -14 8 -5 37 20 65 9 11 19 34 21 50 2 20 8 29 18
27 11 -3 11 1 -3 16 -9 10 -17 23 -18 28 0 5 -15 29 -33 54 -31 43 -35 45 -87
48 -30 2 -58 0 -62 -4z"/>
<path d="M7560 7130 c6 -11 20 -25 31 -31 17 -9 20 -8 14 3 -24 41 -67 68 -45
28z"/>
<path d="M7522 7098 c-7 -7 -12 -15 -12 -20 0 -7 84 -68 94 -68 15 0 3 18 -18
28 -16 7 -26 21 -28 38 -3 31 -18 40 -36 22z"/>
<path d="M7499 7026 c14 -14 27 -26 29 -26 10 0 -26 44 -39 48 -8 3 -3 -7 10
-22z"/>
<path d="M7540 6992 c0 -12 19 -26 26 -19 2 2 -2 10 -11 17 -9 8 -15 8 -15 2z"/>
<path d="M9548 6490 c-24 -33 -42 -37 -64 -15 -19 18 -57 20 -52 3 3 -7 14
-17 26 -23 26 -12 29 -25 5 -25 -21 -1 -63 -33 -63 -48 0 -13 63 -24 118 -21
23 2 47 -2 54 -9 23 -23 28 -11 28 78 0 101 -11 114 -52 60z"/>
<path d="M9080 6351 c-12 -9 -12 -11 2 -16 23 -9 63 -2 61 10 -3 14 -45 17
-63 6z"/>
<path d="M9523 6173 c-26 -5 -27 -7 -12 -36 16 -29 28 -37 62 -37 25 0 27 3
27 40 0 37 -2 40 -27 39 -16 -1 -38 -4 -50 -6z"/>
<path d="M8753 6072 c-8 -32 -86 -62 -158 -62 -53 0 -69 -4 -91 -23 -45 -39
-25 -51 72 -44 59 4 98 13 137 31 77 37 122 35 435 -21 l32 -6 -6 -65 c-8 -75
4 -92 63 -92 18 0 58 -12 90 -26 57 -26 258 -75 268 -66 3 3 5 74 5 158 l0
154 -27 -11 c-29 -11 -150 -7 -318 11 -49 6 -156 14 -237 19 -133 8 -149 11
-184 35 -45 31 -74 33 -81 8z"/>
</g>
</svg>
